<svg width="13" height="105" viewBox="0 0 13 105" fill="none" xmlns="http://www.w3.org/2000/svg">
<path fill-rule="evenodd" clip-rule="evenodd" d="M11.5509 92.8605C11.5794 92.8616 11.6079 92.8625 11.6364 92.8636V87.3115H11.5509V92.8605ZM8.45166 94.2294C8.25136 97.2681 7.47665 100.231 7.20226 103.26C8.05847 100.028 8.68701 95.4101 8.45166 94.2294ZM6.32927 103.011C6.43213 100.942 6.95098 98.9318 7.21539 96.885C7.77727 92.5348 7.48778 88.1907 7.28406 83.8331C6.99913 77.7354 4.82856 72.0899 3.20335 66.3145C1.6448 60.7767 0.70255 55.1811 0.93562 49.415C1.04959 46.6026 1.69609 43.9185 2.7241 41.3128C3.82933 38.5117 5.00265 35.7361 6.32899 33.0297C8.00264 29.6151 8.68077 25.9762 8.86169 22.2415C9.01043 19.1744 9.01584 16.0969 8.77764 13.0312C8.59187 10.6444 7.82143 8.41132 6.72674 6.27644C6.00474 4.86871 5.51267 3.37654 5.23231 1.81873C5.16734 1.4588 5.17162 1.10981 5.2665 0.764195C5.35112 0.457008 5.35824 -0.0670328 5.86769 0.494039C5.95174 0.586335 6.04976 0.427832 6.13524 0.423905C6.58542 0.405109 6.89143 0.611303 6.90283 1.06942C6.94215 2.66987 7.61771 4.07929 8.30637 5.46485C9.14235 7.14667 10.1216 8.76648 10.6847 10.5639C11.2542 12.3815 11.7879 14.203 11.7568 16.1533C11.7355 17.4872 11.8964 18.8304 12.066 20.1582C12.1737 21.0018 11.9993 21.8299 11.9514 22.6468C11.9192 23.1922 12.1401 23.657 12.0936 24.1707C12.0343 24.8263 12.0318 25.487 11.9976 26.1448C11.9021 27.9736 11.5215 29.755 11.1311 31.5407C10.4356 34.7205 8.7349 37.5206 7.69321 40.5703C6.91109 42.86 5.95317 45.102 5.41779 47.4571C5.10523 48.8323 5.08899 50.2914 5.08671 51.7129C5.07759 57.7424 6.4233 63.5417 8.29355 69.2419C8.9201 71.1512 9.54694 73.0681 10.0632 75.0004C10.4806 76.5619 10.8559 78.1542 11.0932 79.7833C11.3867 81.797 11.6591 83.8101 11.7791 85.8333C12.093 91.1223 11.8842 96.3784 10.4228 101.524C10.3325 101.842 10.1761 102.15 10.1313 102.473C9.93701 103.877 8.86454 104.447 7.73453 104.961C7.29802 105.159 6.36346 104.568 6.33269 104.081C6.31018 103.726 6.32813 103.368 6.32927 103.011Z" fill="#D97139"/>
</svg>
