<svg width="12" height="19" viewBox="0 0 12 19" fill="none" xmlns="http://www.w3.org/2000/svg">
<path d="M7.05863 2.58407C7.05863 4.26013 7.78164 5.64042 8.86615 6.82353C9.5563 7.5794 10.3779 8.20382 11.1338 8.89397C11.331 9.05829 11.561 9.18974 11.7253 9.38693C12.1854 9.91275 12.054 10.57 11.4296 10.8987C11.2324 10.9973 11.0352 11.0301 10.838 11.1287C8.50465 12.0818 6.79572 13.6264 6.23703 16.2227C6.13844 16.6499 6.03984 17.0443 5.94125 17.4386C5.87552 17.7015 5.77693 17.9973 5.67834 18.2602C5.54688 18.6217 5.28397 18.8846 4.85674 18.8518C4.4295 18.8189 4.19946 18.556 4.10086 18.1616C3.96941 17.6687 3.87082 17.1428 3.73936 16.617C3.41072 15.2696 3.08208 13.9222 2.4248 12.6733C1.99756 11.8189 1.43887 11.0959 0.617273 10.5372C-0.171465 10.0113 -0.204329 9.35406 0.518681 8.72965C1.11023 8.23669 1.80038 7.80945 2.4248 7.34936C3.90368 6.26484 4.75815 4.81882 4.8896 2.94557C4.95533 2.64979 4.95533 2.25543 5.02106 1.86106C5.08679 1.10518 5.18538 1.00659 5.84266 0.973726C6.49994 0.907998 6.86145 1.17091 6.9929 1.76246C7.05863 2.02538 7.02577 2.32115 7.05863 2.58407Z" fill="#D97139"/>
</svg>
