<svg width="25" height="26" viewBox="0 0 25 26" fill="none" xmlns="http://www.w3.org/2000/svg">
<path d="M15.6487 2.61651C15.6706 4.32328 15.8024 6.03004 16.0878 7.71521C16.1098 7.78002 16.1098 7.84484 16.1317 7.90965C16.3513 9.0763 16.9661 9.91889 18.0201 10.5022C18.7227 10.8911 19.4473 11.2368 20.2597 11.3664C21.4894 11.5824 22.7409 11.8201 23.9705 12.0577C24.3219 12.1226 24.5634 12.3386 24.6073 12.6411C24.6512 12.9219 24.4756 13.2028 24.1682 13.354C23.9925 13.4188 23.7949 13.4621 23.6192 13.5269C22.5872 13.7861 21.5552 14.0886 20.5891 14.5639C19.0301 15.3201 17.8883 16.4867 17.2296 18.0639C16.4611 19.8786 15.9341 21.7583 15.6706 23.7027C15.6048 24.2644 15.5169 24.8261 15.451 25.3878C15.4071 25.7551 15.2095 25.9712 14.9021 25.9928C14.5947 26.036 14.3532 25.8847 14.1995 25.5607C14.1336 25.4094 14.0897 25.2582 14.0458 25.107C13.5627 23.5298 12.882 22.0391 12.0257 20.6132C11.8281 20.3107 11.6304 19.9867 11.3889 19.7274C10.291 18.5824 9.10534 17.5237 7.74398 16.6812C6.62414 15.9898 5.39453 15.6009 4.12099 15.3201C3.08899 15.104 2.05699 14.9096 1.02499 14.7151C0.629754 14.6503 0.41018 14.4343 0.388222 14.1318C0.366265 13.8077 0.585839 13.5485 0.981074 13.4621C1.09086 13.4404 1.22261 13.4188 1.35435 13.4188C1.96916 13.4837 2.54005 13.3108 3.11095 13.2244C4.27469 13.03 5.39453 12.6843 6.51436 12.3386C7.08525 12.1658 7.63419 11.9497 8.20508 11.7553C10.0495 11.1071 11.1693 9.78926 11.872 8.06088C12.0476 7.60719 12.1794 7.13188 12.377 6.69979C12.6624 6.05165 12.9699 5.40351 13.2553 4.75537C13.431 4.38809 13.6286 3.9992 13.7384 3.61032C14.0019 2.68132 14.2434 1.75232 14.5069 0.801712C14.5508 0.650479 14.6167 0.499247 14.6825 0.326409C14.7704 0.110362 14.9241 -0.0192657 15.1656 0.00233897C15.4291 0.0239436 15.5828 0.196781 15.6267 0.434433C15.6487 0.628875 15.6487 0.801712 15.6487 0.996154C15.6487 1.53627 15.6487 2.07639 15.6487 2.61651Z" fill="#5E328B"/>
</svg>
