<svg width="100" height="20" viewBox="0 0 100 20" fill="none" xmlns="http://www.w3.org/2000/svg">
<path d="M47.6472 19.1467L47.82 19.1456C49.5695 19.1695 51.2738 18.5903 52.6465 17.5055C53.1899 17.0096 53.705 16.4837 54.1895 15.9302L54.19 15.9293L58.8426 10.4823L59.2709 10.043C59.9053 9.43914 60.7424 9.20995 61.7367 9.20995C63.6596 9.20995 65.2183 10.6182 65.2183 12.3553C65.2183 14.0925 63.6596 15.5007 61.7367 15.5007C60.8606 15.5007 60.0572 15.2959 59.4482 14.7258C59.2042 14.5024 58.9773 14.261 58.7694 14.0036C58.5379 13.7333 58.0627 13.1734 58.0627 13.1734L55.7082 15.9293L55.7077 15.9302C56.1922 16.4837 56.7073 17.0096 57.2507 17.5055C58.6234 18.5903 60.3277 19.1695 62.0772 19.1456L62.2683 19.1468C63.2463 19.1545 64.2182 18.9926 65.1408 18.6681C66.0001 18.3673 66.792 17.9008 67.4716 17.2949C68.137 16.6958 68.6729 15.9669 69.0464 15.1532C69.44 14.2872 69.6379 13.3451 69.6259 12.394C69.6386 11.4307 69.4409 10.4762 69.0464 9.59716C68.6752 8.77838 68.1391 8.04497 67.4716 7.44279C66.787 6.83423 65.9913 6.36366 65.1282 6.05695C64.2048 5.72555 63.2304 5.55927 62.2494 5.56573L62.0772 5.56688C60.3277 5.54296 58.6234 6.12211 57.2507 7.20696C56.7073 7.70281 56.1922 8.22872 55.7077 8.78222L51.0551 14.2293L50.6268 14.6685C49.9924 15.2724 49.1553 15.5016 48.161 15.5016C46.2382 15.5016 44.6794 14.0934 44.6794 12.3562C44.6794 10.6191 46.2382 9.21084 48.161 9.21084C49.0371 9.21084 49.8405 9.41569 50.4495 9.98572C50.6936 10.2091 50.9204 10.4505 51.1283 10.7079C51.3598 10.9782 51.835 11.5381 51.835 11.5381L54.1895 8.78222C53.705 8.22873 53.1899 7.70282 52.6465 7.20696C51.2738 6.12212 49.5695 5.54297 47.82 5.56689L47.6289 5.56561C46.6582 5.55913 45.694 5.72551 44.7816 6.05695C43.9232 6.36552 43.132 6.83598 42.4509 7.4428C41.7831 8.04472 41.2469 8.77819 40.876 9.59717C40.4814 10.4761 40.2836 11.4306 40.2965 12.394C40.2843 13.3452 40.4822 14.2873 40.876 15.1532C41.2492 15.9671 41.7852 16.696 42.4509 17.2949C43.1303 17.901 43.9222 18.3675 44.7816 18.6681C45.7021 18.9918 46.6716 19.1538 47.6472 19.1467Z" fill="white"/>
<path d="M0.647607 17.9734C0.480907 17.8976 0.335245 17.7822 0.223277 17.6373C0.11131 17.4924 0.036428 17.3223 0.00513254 17.1419C-0.0250811 16.7582 0.0771836 16.3758 0.294866 16.0584L0.672863 15.4788C0.759692 15.3239 0.877027 15.1882 1.01778 15.0799C1.15853 14.9717 1.31977 14.8931 1.49176 14.8489C1.8715 14.8145 2.25294 14.8934 2.58784 15.0757C2.90674 15.2103 3.2679 15.3572 3.67134 15.5166C4.11399 15.6833 4.58426 15.7645 5.05719 15.7559C5.49378 15.7559 5.80034 15.6846 5.97686 15.5419C6.05827 15.4825 6.12462 15.4048 6.17056 15.3151C6.21651 15.2254 6.24078 15.1261 6.24142 15.0254C6.23398 14.891 6.18694 14.7619 6.10622 14.6543C6.02551 14.5466 5.91473 14.4653 5.78786 14.4205C5.42565 14.2457 5.05085 14.0983 4.66661 13.9796C4.22132 13.837 3.73417 13.6775 3.20516 13.5008C2.68522 13.3293 2.19295 13.0831 1.74374 12.7701C1.2895 12.4498 0.907505 12.0378 0.622457 11.5606C0.300714 10.9888 0.143717 10.3391 0.168893 9.68344C0.156033 9.06579 0.299029 8.45485 0.584673 7.90707C0.861377 7.39518 1.25399 6.95511 1.73112 6.62203C2.2516 6.26241 2.83173 5.99793 3.44456 5.84088C4.13537 5.65997 4.84703 5.57101 5.56112 5.57632C6.28888 5.56373 7.01459 5.6571 7.71546 5.8535C8.23535 6.00423 8.74462 6.1894 9.2399 6.40779C9.40815 6.47306 9.55799 6.57828 9.67652 6.71436C9.79504 6.85045 9.87869 7.01333 9.92024 7.18894C9.98206 7.55968 9.92008 7.94045 9.74386 8.27244L9.44151 8.87713C9.38184 9.04568 9.28526 9.19876 9.15883 9.32519C9.0324 9.45162 8.87932 9.5482 8.71077 9.60787C8.33724 9.68538 7.94872 9.64123 7.6021 9.48191C7.29971 9.36455 6.96373 9.25115 6.59416 9.1417C6.20096 9.02932 5.79362 8.97417 5.38469 8.97794C4.91424 8.97794 4.60348 9.04511 4.4524 9.17946C4.38165 9.23762 4.32462 9.31071 4.28542 9.39349C4.24621 9.47627 4.2258 9.56669 4.22562 9.65828C4.23238 9.79129 4.27936 9.91911 4.36035 10.0248C4.44134 10.1306 4.55252 10.2092 4.67918 10.2503C5.04332 10.4172 5.41786 10.5603 5.80047 10.6788C6.24538 10.8216 6.73253 10.977 7.26193 11.1448C7.78264 11.3089 8.27541 11.551 8.7234 11.863C9.17281 12.1785 9.55413 12.5813 9.84468 13.0473C10.1685 13.6091 10.3258 14.2514 10.2982 14.8992C10.3029 15.4821 10.1781 16.0587 9.93287 16.5875C9.68683 17.1113 9.32493 17.5722 8.87453 17.9356C8.37183 18.3354 7.79945 18.6386 7.18634 18.8301C6.46513 19.0569 5.71238 19.1675 4.95639 19.1576C4.09193 19.1749 3.23097 19.0428 2.41147 18.7671C1.80032 18.5575 1.20985 18.2918 0.647607 17.9734Z" fill="white"/>
<path d="M11.5077 12.3544C11.5064 11.4877 11.6688 10.6286 11.9864 9.82215C12.3018 9.01297 12.7774 8.27587 13.3848 7.65516C14.0308 7.00311 14.8023 6.48881 15.6526 6.14334C16.6332 5.74992 17.6828 5.55715 18.7392 5.57644C19.5939 5.55573 20.446 5.68019 21.259 5.94454C21.8448 6.13966 22.4036 6.40806 22.922 6.74334C23.0774 6.83263 23.211 6.95519 23.3134 7.10222C23.4157 7.24924 23.4843 7.4171 23.5142 7.59375C23.5446 7.96786 23.442 8.3407 23.2244 8.64655L22.796 9.30565C22.5606 9.69225 22.2918 9.90641 21.9897 9.94812C21.6209 9.97638 21.2521 9.89296 20.9314 9.70872C20.6583 9.5661 20.3712 9.45212 20.0747 9.36859C19.7302 9.27296 19.3739 9.2263 19.0164 9.23C18.5493 9.21949 18.0854 9.30903 17.6558 9.4926C17.2945 9.65074 16.9701 9.88244 16.7032 10.1729C16.4364 10.4634 16.2331 10.8063 16.1061 11.1797C15.8499 11.917 15.8543 12.72 16.1188 13.4545C16.2501 13.8329 16.4557 14.1813 16.7235 14.4793C17.0066 14.7902 17.3494 15.0409 17.7314 15.2167C18.1827 15.4184 18.6734 15.5166 19.1676 15.5041C19.5978 15.5053 20.0247 15.4285 20.4275 15.2774C20.802 15.1397 21.1643 14.9711 21.5109 14.7734C21.8335 14.5589 22.2232 14.4693 22.6071 14.5214C22.9177 14.5887 23.1823 14.8323 23.4008 15.2522L23.7284 15.8848C23.9019 16.2115 23.9721 16.5831 23.9299 16.9506C23.8963 17.1226 23.8275 17.2857 23.7277 17.4298C23.628 17.5738 23.4995 17.6957 23.3503 17.7876C22.7709 18.1557 22.1544 18.4618 21.5109 18.701C20.6237 19.025 19.6835 19.1799 18.7392 19.1577C17.684 19.1767 16.6353 18.9884 15.6526 18.6035C14.8013 18.2656 14.0291 17.7551 13.3848 17.1041C12.7753 16.4803 12.2994 15.7386 11.9864 14.9246C11.6678 14.1052 11.5054 13.2335 11.5077 12.3544Z" fill="white"/>
<path d="M25.5927 2.22666C25.5927 1.30299 26.0546 0.841046 26.9785 0.84082H28.5659C29.4896 0.84082 29.9515 1.30277 29.9517 2.22666V6.53533C29.9517 6.70351 29.9475 6.8547 29.9392 6.98888C29.9305 7.12355 29.9266 7.24091 29.9266 7.34163C29.9111 7.44172 29.9027 7.54278 29.9014 7.64406H29.9517C30.3324 6.99523 30.8924 6.47022 31.5644 6.13217C32.2883 5.75832 33.093 5.56799 33.9077 5.57788C34.5298 5.57345 35.1492 5.65829 35.7472 5.82982C36.2952 5.98516 36.7998 6.26547 37.2212 6.64875C37.6591 7.06674 37.9953 7.57963 38.2039 8.14795C38.4663 8.88313 38.5902 9.66058 38.5692 10.4409V17.4709C38.5692 18.3949 38.1073 18.8569 37.1834 18.8569H35.5959C34.6719 18.8569 34.21 18.3949 34.2101 17.4709V11.2472C34.2101 10.6425 34.0925 10.2058 33.8573 9.93694C33.7172 9.79462 33.5475 9.68477 33.3603 9.61511C33.1731 9.54545 32.9729 9.5177 32.7738 9.53379C31.8329 9.53379 31.1274 9.86556 30.6573 10.5291C30.1665 11.2614 29.9196 12.1301 29.9517 13.0111V17.4709C29.9517 18.3949 29.4898 18.8569 28.5659 18.8569H26.9785C26.0544 18.8569 25.5925 18.3949 25.5927 17.4709V2.22666Z" fill="white"/>
<path d="M71.2998 2.22569C71.2998 1.30202 71.7618 0.840069 72.6857 0.839844H74.2731C75.1967 0.839844 75.6587 1.30179 75.6589 2.22569V13.8668C75.6589 14.3541 75.7303 14.6817 75.8731 14.8495C76.0026 15.0099 76.1863 15.1175 76.3896 15.1518C76.6638 15.1729 76.9222 15.2887 77.1204 15.4793C77.2209 15.5967 77.2972 15.7329 77.3448 15.88C77.3923 16.0271 77.4103 16.1821 77.3975 16.3361V17.5708C77.4185 17.9436 77.3019 18.3112 77.07 18.6039C76.8515 18.8559 76.4903 18.9818 75.9865 18.9818C75.4246 18.9811 74.8638 18.9305 74.3109 18.8306C73.7598 18.7352 73.2407 18.5059 72.799 18.1628C72.3164 17.7683 71.9433 17.2564 71.7155 16.6763C71.4384 16.0298 71.2998 15.1605 71.2998 14.0683V2.22569Z" fill="white"/>
<path d="M79.0858 7.26606C79.0858 6.34248 79.5478 5.88053 80.4717 5.88022H82.0591C82.9827 5.88022 83.4447 6.34217 83.4449 7.26606V17.4709C83.4449 18.3949 82.983 18.8569 82.0591 18.8569H80.4717C79.5476 18.8569 79.0857 18.3949 79.0858 17.4709V7.26606ZM80.522 4.24244C79.598 4.24244 79.1361 3.78049 79.1362 2.8566V2.22666C79.1362 1.30299 79.5981 0.841046 80.522 0.84082H82.0087C82.9323 0.84082 83.3943 1.30277 83.3945 2.22666V2.8566C83.3945 3.7806 82.9326 4.24255 82.0087 4.24244H80.522Z" fill="white"/>
<path d="M85.2845 12.4058C85.2716 11.4424 85.4694 10.4878 85.8641 9.60893C86.235 8.78996 86.7711 8.05649 87.4389 7.45455C88.12 6.84774 88.9112 6.37728 89.7697 6.06871C90.6821 5.73726 91.6462 5.57089 92.6169 5.57737C93.6 5.57025 94.5767 5.73658 95.502 6.06871C96.3651 6.37543 97.1608 6.846 97.8454 7.45455C98.5129 8.05671 99.0491 8.79013 99.4202 9.60893C99.8147 10.4879 100.012 11.4424 99.9997 12.4058C100.012 13.3569 99.8139 14.299 99.4202 15.1649C99.0468 15.9788 98.5109 16.7076 97.8454 17.3067C97.1658 17.9126 96.374 18.3792 95.5146 18.68C93.6528 19.3182 91.6315 19.3182 89.7697 18.68C88.9103 18.3794 88.1183 17.9127 87.4389 17.3067C86.7732 16.7078 86.2372 15.9789 85.8641 15.1649C85.4702 14.299 85.2724 13.3569 85.2845 12.4058ZM89.6941 12.4054C89.6867 12.8503 89.7681 13.2923 89.9334 13.7054C90.0804 14.07 90.2989 14.4014 90.576 14.6802C90.8421 14.9454 91.1593 15.1538 91.5083 15.2929C92.2377 15.5758 93.0466 15.5758 93.776 15.2929C94.125 15.1537 94.4422 14.9453 94.7083 14.6802C94.9852 14.4012 95.2036 14.0698 95.3509 13.7054C95.516 13.2922 95.5974 12.8503 95.5902 12.4054C95.5965 11.9566 95.5152 11.5109 95.3509 11.0932C95.2037 10.7214 94.9855 10.3818 94.7083 10.0935C94.4391 9.81842 94.1177 9.59984 93.7629 9.45061C93.4081 9.30138 93.0271 9.22451 92.6422 9.22451C92.2573 9.22451 91.8762 9.30138 91.5214 9.45061C91.1666 9.59984 90.8452 9.81842 90.576 10.0935C90.2986 10.3816 90.0803 10.7212 89.9334 11.0932C89.7689 11.5108 89.6876 11.9566 89.6941 12.4054Z" fill="white"/>
<path d="M47.3513 19.4143L47.5241 19.4131C49.2736 19.4371 50.9779 18.8579 52.3506 17.7731C52.894 17.2772 53.4091 16.7513 53.8936 16.1978L53.8941 16.1969L58.5467 10.7498L58.975 10.3106C59.6094 9.70671 60.4465 9.47753 61.4408 9.47753C63.3637 9.47753 64.9224 10.8858 64.9224 12.6229C64.9224 14.36 63.3637 15.7683 61.4408 15.7683C60.5647 15.7683 59.7613 15.5634 59.1523 14.9934C58.9083 14.77 58.6814 14.5286 58.4735 14.2712C58.242 14.0009 57.7668 13.441 57.7668 13.441L55.4123 16.1969L55.4118 16.1978C55.8963 16.7513 56.4114 17.2772 56.9548 17.7731C58.3275 18.8579 60.0318 19.4371 61.7813 19.4131L61.9724 19.4144C62.9504 19.4221 63.9223 19.2601 64.8449 18.9357C65.7042 18.6349 66.4961 18.1684 67.1757 17.5625C67.8411 16.9634 68.377 16.2345 68.7505 15.4207C69.1441 14.5548 69.342 13.6127 69.33 12.6616C69.3427 11.6982 69.145 10.7437 68.7505 9.86474C68.3793 9.04596 67.8432 8.31255 67.1757 7.71037C66.4911 7.10181 65.6954 6.63124 64.8323 6.32453C63.9089 5.99313 62.9345 5.82685 61.9535 5.83331L61.7813 5.83446C60.0318 5.81054 58.3275 6.38969 56.9548 7.47453C56.4114 7.97039 55.8963 8.4963 55.4118 9.0498L50.7592 14.4969L50.3309 14.9361C49.6965 15.54 48.8594 15.7692 47.8651 15.7692C45.9423 15.7692 44.3835 14.3609 44.3835 12.6238C44.3835 10.8867 45.9423 9.47841 47.8651 9.47841C48.7412 9.47841 49.5446 9.68327 50.1536 10.2533C50.3977 10.4767 50.6245 10.7181 50.8324 10.9755C51.0639 11.2458 51.5391 11.8057 51.5391 11.8057L53.8936 9.0498C53.4091 8.49631 52.894 7.97039 52.3506 7.47454C50.9779 6.3897 49.2736 5.81055 47.5241 5.83447L47.333 5.83319C46.3623 5.82671 45.3982 5.99308 44.4857 6.32453C43.6273 6.6331 42.8361 7.10356 42.155 7.71038C41.4872 8.3123 40.951 9.04577 40.5801 9.86475C40.1855 10.7437 39.9877 11.6982 40.0006 12.6616C39.9884 13.6127 40.1863 14.5549 40.5801 15.4207C40.9533 16.2347 41.4893 16.9636 42.155 17.5625C42.8344 18.1685 43.6263 18.6351 44.4857 18.9357C45.4062 19.2594 46.3757 19.4213 47.3513 19.4143Z" fill="url(#paint0_linear_2283_849)"/>
<path d="M0.647607 17.9734C0.480907 17.8976 0.335245 17.7822 0.223277 17.6373C0.11131 17.4924 0.036428 17.3223 0.00513254 17.1419C-0.0250811 16.7582 0.0771836 16.3758 0.294866 16.0584L0.672863 15.4788C0.759692 15.3239 0.877027 15.1882 1.01778 15.0799C1.15853 14.9717 1.31977 14.8931 1.49176 14.8489C1.8715 14.8145 2.25294 14.8934 2.58784 15.0757C2.90674 15.2103 3.2679 15.3572 3.67134 15.5166C4.11399 15.6833 4.58426 15.7645 5.05719 15.7559C5.49378 15.7559 5.80034 15.6846 5.97686 15.5419C6.05827 15.4825 6.12462 15.4048 6.17056 15.3151C6.21651 15.2254 6.24078 15.1261 6.24142 15.0254C6.23398 14.891 6.18694 14.7619 6.10622 14.6543C6.02551 14.5466 5.91473 14.4653 5.78786 14.4205C5.42565 14.2457 5.05085 14.0983 4.66661 13.9796C4.22132 13.837 3.73417 13.6775 3.20516 13.5008C2.68522 13.3293 2.19295 13.0831 1.74374 12.7701C1.2895 12.4498 0.907505 12.0378 0.622457 11.5606C0.300714 10.9888 0.143717 10.3391 0.168893 9.68344C0.156033 9.06579 0.299029 8.45485 0.584673 7.90707C0.861377 7.39518 1.25399 6.95511 1.73112 6.62203C2.2516 6.26241 2.83173 5.99793 3.44456 5.84088C4.13537 5.65997 4.84703 5.57101 5.56112 5.57632C6.28888 5.56373 7.01459 5.6571 7.71546 5.8535C8.23535 6.00423 8.74462 6.1894 9.2399 6.40779C9.40815 6.47306 9.55799 6.57828 9.67652 6.71436C9.79504 6.85045 9.87869 7.01333 9.92024 7.18894C9.98206 7.55968 9.92008 7.94045 9.74386 8.27244L9.44151 8.87713C9.38184 9.04568 9.28526 9.19876 9.15883 9.32519C9.0324 9.45162 8.87932 9.5482 8.71077 9.60787C8.33724 9.68538 7.94872 9.64123 7.6021 9.48191C7.29971 9.36455 6.96373 9.25115 6.59416 9.1417C6.20096 9.02932 5.79362 8.97417 5.38469 8.97794C4.91424 8.97794 4.60348 9.04511 4.4524 9.17946C4.38165 9.23762 4.32462 9.31071 4.28542 9.39349C4.24621 9.47627 4.2258 9.56669 4.22562 9.65828C4.23238 9.79129 4.27936 9.91911 4.36035 10.0248C4.44134 10.1306 4.55252 10.2092 4.67918 10.2503C5.04332 10.4172 5.41786 10.5603 5.80047 10.6788C6.24538 10.8216 6.73253 10.977 7.26193 11.1448C7.78264 11.3089 8.27541 11.551 8.7234 11.863C9.17281 12.1785 9.55413 12.5813 9.84468 13.0473C10.1685 13.6091 10.3258 14.2514 10.2982 14.8992C10.3029 15.4821 10.1781 16.0587 9.93287 16.5875C9.68683 17.1113 9.32493 17.5722 8.87453 17.9356C8.37183 18.3354 7.79945 18.6386 7.18634 18.8301C6.46513 19.0569 5.71238 19.1675 4.95639 19.1576C4.09193 19.1749 3.23097 19.0428 2.41147 18.7671C1.80032 18.5575 1.20985 18.2918 0.647607 17.9734Z" fill="url(#paint1_linear_2283_849)"/>
<path d="M11.5077 12.3544C11.5064 11.4877 11.6688 10.6286 11.9864 9.82215C12.3018 9.01297 12.7774 8.27587 13.3848 7.65516C14.0308 7.00311 14.8023 6.48881 15.6526 6.14334C16.6332 5.74992 17.6828 5.55715 18.7392 5.57644C19.5939 5.55573 20.446 5.68019 21.259 5.94454C21.8448 6.13966 22.4036 6.40806 22.922 6.74334C23.0774 6.83263 23.211 6.95519 23.3134 7.10222C23.4157 7.24924 23.4843 7.4171 23.5142 7.59375C23.5446 7.96786 23.442 8.3407 23.2244 8.64655L22.796 9.30565C22.5606 9.69225 22.2918 9.90641 21.9897 9.94812C21.6209 9.97638 21.2521 9.89296 20.9314 9.70872C20.6583 9.5661 20.3712 9.45212 20.0747 9.36859C19.7302 9.27296 19.3739 9.2263 19.0164 9.23C18.5493 9.21949 18.0854 9.30903 17.6558 9.4926C17.2945 9.65074 16.9701 9.88244 16.7032 10.1729C16.4364 10.4634 16.2331 10.8063 16.1061 11.1797C15.8499 11.917 15.8543 12.72 16.1188 13.4545C16.2501 13.8329 16.4557 14.1813 16.7235 14.4793C17.0066 14.7902 17.3494 15.0409 17.7314 15.2167C18.1827 15.4184 18.6734 15.5166 19.1676 15.5041C19.5978 15.5053 20.0247 15.4285 20.4275 15.2774C20.802 15.1397 21.1643 14.9711 21.5109 14.7734C21.8335 14.5589 22.2232 14.4693 22.6071 14.5214C22.9177 14.5887 23.1823 14.8323 23.4008 15.2522L23.7284 15.8848C23.9019 16.2115 23.9721 16.5831 23.9299 16.9506C23.8963 17.1226 23.8275 17.2857 23.7277 17.4298C23.628 17.5738 23.4995 17.6957 23.3503 17.7876C22.7709 18.1557 22.1544 18.4618 21.5109 18.701C20.6237 19.025 19.6835 19.1799 18.7392 19.1577C17.684 19.1767 16.6353 18.9884 15.6526 18.6035C14.8013 18.2656 14.0291 17.7551 13.3848 17.1041C12.7753 16.4803 12.2994 15.7386 11.9864 14.9246C11.6678 14.1052 11.5054 13.2335 11.5077 12.3544Z" fill="url(#paint2_linear_2283_849)"/>
<path d="M25.5927 2.22666C25.5927 1.30299 26.0546 0.841046 26.9785 0.84082H28.5659C29.4896 0.84082 29.9515 1.30277 29.9517 2.22666V6.53533C29.9517 6.70351 29.9475 6.8547 29.9392 6.98888C29.9305 7.12355 29.9266 7.24091 29.9266 7.34163C29.9111 7.44172 29.9027 7.54278 29.9014 7.64406H29.9517C30.3324 6.99523 30.8924 6.47022 31.5644 6.13217C32.2883 5.75832 33.093 5.56799 33.9077 5.57788C34.5298 5.57345 35.1492 5.65829 35.7472 5.82982C36.2952 5.98516 36.7998 6.26547 37.2212 6.64875C37.6591 7.06674 37.9953 7.57963 38.2039 8.14795C38.4663 8.88313 38.5902 9.66058 38.5692 10.4409V17.4709C38.5692 18.3949 38.1073 18.8569 37.1834 18.8569H35.5959C34.6719 18.8569 34.21 18.3949 34.2101 17.4709V11.2472C34.2101 10.6425 34.0925 10.2058 33.8573 9.93694C33.7172 9.79462 33.5475 9.68477 33.3603 9.61511C33.1731 9.54545 32.9729 9.5177 32.7738 9.53379C31.8329 9.53379 31.1274 9.86556 30.6573 10.5291C30.1665 11.2614 29.9196 12.1301 29.9517 13.0111V17.4709C29.9517 18.3949 29.4898 18.8569 28.5659 18.8569H26.9785C26.0544 18.8569 25.5925 18.3949 25.5927 17.4709V2.22666Z" fill="url(#paint3_linear_2283_849)"/>
<path d="M71.2998 2.22569C71.2998 1.30202 71.7618 0.840069 72.6857 0.839844H74.2731C75.1967 0.839844 75.6587 1.30179 75.6589 2.22569V13.8668C75.6589 14.3541 75.7303 14.6817 75.8731 14.8495C76.0026 15.0099 76.1863 15.1175 76.3896 15.1518C76.6638 15.1729 76.9222 15.2887 77.1204 15.4793C77.2209 15.5967 77.2972 15.7329 77.3448 15.88C77.3923 16.0271 77.4103 16.1821 77.3975 16.3361V17.5708C77.4185 17.9436 77.3019 18.3112 77.07 18.6039C76.8515 18.8559 76.4903 18.9818 75.9865 18.9818C75.4246 18.9811 74.8638 18.9305 74.3109 18.8306C73.7598 18.7352 73.2407 18.5059 72.799 18.1628C72.3164 17.7683 71.9433 17.2564 71.7155 16.6763C71.4384 16.0298 71.2998 15.1605 71.2998 14.0683V2.22569Z" fill="url(#paint4_linear_2283_849)"/>
<path d="M79.0858 7.26606C79.0858 6.34248 79.5478 5.88053 80.4717 5.88022H82.0591C82.9827 5.88022 83.4447 6.34217 83.4449 7.26606V17.4709C83.4449 18.3949 82.983 18.8569 82.0591 18.8569H80.4717C79.5476 18.8569 79.0857 18.3949 79.0858 17.4709V7.26606ZM80.522 4.24244C79.598 4.24244 79.1361 3.78049 79.1362 2.8566V2.22666C79.1362 1.30299 79.5981 0.841046 80.522 0.84082H82.0087C82.9323 0.84082 83.3943 1.30277 83.3945 2.22666V2.8566C83.3945 3.7806 82.9326 4.24255 82.0087 4.24244H80.522Z" fill="url(#paint5_linear_2283_849)"/>
<path d="M85.2845 12.4058C85.2716 11.4424 85.4694 10.4878 85.8641 9.60893C86.235 8.78996 86.7711 8.05649 87.4389 7.45455C88.12 6.84774 88.9112 6.37728 89.7697 6.06871C90.6821 5.73726 91.6462 5.57089 92.6169 5.57737C93.6 5.57025 94.5767 5.73658 95.502 6.06871C96.3651 6.37543 97.1608 6.846 97.8454 7.45455C98.5129 8.05671 99.0491 8.79013 99.4202 9.60893C99.8147 10.4879 100.012 11.4424 99.9997 12.4058C100.012 13.3569 99.8139 14.299 99.4202 15.1649C99.0468 15.9788 98.5109 16.7076 97.8454 17.3067C97.1658 17.9126 96.374 18.3792 95.5146 18.68C93.6528 19.3182 91.6315 19.3182 89.7697 18.68C88.9103 18.3794 88.1183 17.9127 87.4389 17.3067C86.7732 16.7078 86.2372 15.9789 85.8641 15.1649C85.4702 14.299 85.2724 13.3569 85.2845 12.4058ZM89.6941 12.4054C89.6867 12.8503 89.7681 13.2923 89.9334 13.7054C90.0804 14.07 90.2989 14.4014 90.576 14.6802C90.8421 14.9454 91.1593 15.1538 91.5083 15.2929C92.2377 15.5758 93.0466 15.5758 93.776 15.2929C94.125 15.1537 94.4422 14.9453 94.7083 14.6802C94.9852 14.4012 95.2036 14.0698 95.3509 13.7054C95.516 13.2922 95.5974 12.8503 95.5902 12.4054C95.5965 11.9566 95.5152 11.5109 95.3509 11.0932C95.2037 10.7214 94.9855 10.3818 94.7083 10.0935C94.4391 9.81842 94.1177 9.59984 93.7629 9.45061C93.4081 9.30138 93.0271 9.22451 92.6422 9.22451C92.2573 9.22451 91.8762 9.30138 91.5214 9.45061C91.1666 9.59984 90.8452 9.81842 90.576 10.0935C90.2986 10.3816 90.0803 10.7212 89.9334 11.0932C89.7689 11.5108 89.6876 11.9566 89.6941 12.4054Z" fill="url(#paint6_linear_2283_849)"/>
<defs>
<linearGradient id="paint0_linear_2283_849" x1="-319.005" y1="12.6238" x2="96.8223" y2="12.6238" gradientUnits="userSpaceOnUse">
<stop offset="0.11333" stop-color="#E41E2D"/>
<stop offset="0.23977" stop-color="#E96B25"/>
<stop offset="0.40912" stop-color="#F6DA07"/>
<stop offset="0.5672" stop-color="#74C045"/>
<stop offset="0.6799" stop-color="#56C2E3"/>
<stop offset="0.8269" stop-color="#2D6FB7"/>
<stop offset="0.99413" stop-color="#662D91"/>
</linearGradient>
<linearGradient id="paint1_linear_2283_849" x1="-318.709" y1="12.3669" x2="97.1176" y2="12.3669" gradientUnits="userSpaceOnUse">
<stop offset="0.11333" stop-color="#E41E2D"/>
<stop offset="0.23977" stop-color="#E96B25"/>
<stop offset="0.40912" stop-color="#F6DA07"/>
<stop offset="0.5672" stop-color="#74C045"/>
<stop offset="0.6799" stop-color="#56C2E3"/>
<stop offset="0.8269" stop-color="#2D6FB7"/>
<stop offset="0.99413" stop-color="#662D91"/>
</linearGradient>
<linearGradient id="paint2_linear_2283_849" x1="-318.709" y1="12.367" x2="97.1178" y2="12.367" gradientUnits="userSpaceOnUse">
<stop offset="0.11333" stop-color="#E41E2D"/>
<stop offset="0.23977" stop-color="#E96B25"/>
<stop offset="0.40912" stop-color="#F6DA07"/>
<stop offset="0.5672" stop-color="#74C045"/>
<stop offset="0.6799" stop-color="#56C2E3"/>
<stop offset="0.8269" stop-color="#2D6FB7"/>
<stop offset="0.99413" stop-color="#662D91"/>
</linearGradient>
<linearGradient id="paint3_linear_2283_849" x1="-318.709" y1="9.84884" x2="97.1177" y2="9.84884" gradientUnits="userSpaceOnUse">
<stop offset="0.11333" stop-color="#E41E2D"/>
<stop offset="0.23977" stop-color="#E96B25"/>
<stop offset="0.40912" stop-color="#F6DA07"/>
<stop offset="0.5672" stop-color="#74C045"/>
<stop offset="0.6799" stop-color="#56C2E3"/>
<stop offset="0.8269" stop-color="#2D6FB7"/>
<stop offset="0.99413" stop-color="#662D91"/>
</linearGradient>
<linearGradient id="paint4_linear_2283_849" x1="-318.709" y1="9.9108" x2="97.1177" y2="9.9108" gradientUnits="userSpaceOnUse">
<stop offset="0.11333" stop-color="#E41E2D"/>
<stop offset="0.23977" stop-color="#E96B25"/>
<stop offset="0.40912" stop-color="#F6DA07"/>
<stop offset="0.5672" stop-color="#74C045"/>
<stop offset="0.6799" stop-color="#56C2E3"/>
<stop offset="0.8269" stop-color="#2D6FB7"/>
<stop offset="0.99413" stop-color="#662D91"/>
</linearGradient>
<linearGradient id="paint5_linear_2283_849" x1="-318.709" y1="9.84884" x2="97.1179" y2="9.84884" gradientUnits="userSpaceOnUse">
<stop offset="0.11333" stop-color="#E41E2D"/>
<stop offset="0.23977" stop-color="#E96B25"/>
<stop offset="0.40912" stop-color="#F6DA07"/>
<stop offset="0.5672" stop-color="#74C045"/>
<stop offset="0.6799" stop-color="#56C2E3"/>
<stop offset="0.8269" stop-color="#2D6FB7"/>
<stop offset="0.99413" stop-color="#662D91"/>
</linearGradient>
<linearGradient id="paint6_linear_2283_849" x1="-318.709" y1="12.368" x2="97.1183" y2="12.368" gradientUnits="userSpaceOnUse">
<stop offset="0.11333" stop-color="#E41E2D"/>
<stop offset="0.23977" stop-color="#E96B25"/>
<stop offset="0.40912" stop-color="#F6DA07"/>
<stop offset="0.5672" stop-color="#74C045"/>
<stop offset="0.6799" stop-color="#56C2E3"/>
<stop offset="0.8269" stop-color="#2D6FB7"/>
<stop offset="0.99413" stop-color="#662D91"/>
</linearGradient>
</defs>
</svg>
