<svg width="32" height="32" viewBox="0 0 32 32" fill="none" xmlns="http://www.w3.org/2000/svg">
<path d="M2.74893 24.0365C2.68226 24.4717 3.03561 24.9682 3.52034 25.1209C3.77412 25.2008 4.03717 25.2468 4.30278 25.2577C4.52452 25.2659 4.74627 25.2758 4.96801 25.2859C5.48703 25.3091 6.0185 25.333 6.5498 25.333C6.76326 25.333 6.9767 25.3291 7.18898 25.3197C8.22244 25.2749 9.27174 25.208 10.2864 25.1433C11.5019 25.066 12.7585 24.9862 13.9948 24.9429C17.2133 24.8304 20.4441 24.3829 23.5686 23.9503L23.974 23.8941C24.7065 23.7929 25.4639 23.6881 26.2025 23.54C26.2351 23.5336 26.2689 23.5277 26.3031 23.5219C26.5998 23.4708 27.0481 23.3939 27.1635 22.7053C27.1697 22.6679 27.1622 22.6297 27.1422 22.5977C27.1223 22.5657 27.0914 22.5423 27.0553 22.532C26.9777 22.5096 26.9058 22.4849 26.8377 22.4614C26.6981 22.406 26.5516 22.3699 26.4025 22.3542L25.9317 22.3261C24.8454 22.2612 23.7222 22.1943 22.6153 22.1644C19.4785 22.0778 16.3394 22.1602 13.2112 22.4114C11.196 22.5757 9.14418 22.7102 7.15974 22.8403C6.15451 22.9062 5.14922 22.9735 4.14399 23.042C3.92932 23.0516 3.71675 23.0886 3.51132 23.1523C3.31375 23.2103 3.13687 23.3244 3.00171 23.4813C2.86655 23.638 2.77877 23.8307 2.74893 24.0365Z" fill="#374151"/>
<path d="M3.28694 16.2207C3.28204 16.3836 3.32292 16.5445 3.40482 16.6849C3.48671 16.8253 3.60624 16.9393 3.74963 17.0138C3.99319 17.1347 4.2579 17.206 4.52869 17.2237C4.88776 17.2459 5.26456 17.2651 5.64714 17.2651C5.83429 17.2651 6.02268 17.2604 6.21102 17.2494C7.33451 17.1842 8.47484 17.1072 9.57823 17.0328C11.6438 16.8935 13.7797 16.7489 15.8816 16.6761C18.7429 16.5766 21.6197 16.2215 24.4016 15.878C25.131 15.7884 25.8598 15.6998 26.5883 15.6125C26.6463 15.6058 26.7051 15.6003 26.7648 15.5947C27.1912 15.5551 27.722 15.5058 28.2638 14.9194C28.2805 14.9012 28.2928 14.8792 28.2991 14.8553C28.3056 14.8313 28.3064 14.8062 28.3011 14.7819C28.2959 14.7577 28.2848 14.735 28.269 14.716C28.2533 14.697 28.2332 14.6821 28.2104 14.6726C27.2207 14.2611 26.3648 14.2048 25.5025 14.1795L24.7499 14.1576C22.3664 14.0875 19.9021 14.0151 17.4683 14.1096C13.3773 14.2689 9.37099 14.6713 4.93334 15.1419C4.51618 15.1879 4.10959 15.3044 3.73057 15.4864C3.5956 15.554 3.48231 15.6589 3.40381 15.7888C3.3253 15.9188 3.2848 16.0685 3.28694 16.2207Z" fill="#374151"/>
<path d="M4.12895 8.43163C4.41746 8.57387 4.72953 8.66076 5.04941 8.68788C5.22484 8.70102 5.40036 8.71458 5.57598 8.72851C6.38652 8.79186 7.22252 8.85727 8.05065 8.85727C8.11466 8.85727 8.17879 8.8573 8.2428 8.85611C9.8083 8.83624 11.3994 8.79932 12.9382 8.76361C14.9797 8.7164 17.0908 8.66753 19.1666 8.65782C22.1379 8.64392 25.1229 8.30059 28.0098 7.96861L28.1023 7.95803C28.2843 7.92279 28.4582 7.85363 28.6152 7.7541C28.7203 7.69792 28.8394 7.63457 28.9858 7.56614C29.0119 7.55399 29.0341 7.53458 29.0498 7.51019C29.0654 7.48579 29.0739 7.45741 29.0742 7.42833C29.0746 7.39926 29.0668 7.37068 29.0517 7.34593C29.0365 7.32119 29.0147 7.30126 28.9889 7.28852C28.8381 7.21382 28.7112 7.14211 28.5993 7.07817C28.4237 6.95873 28.2265 6.8757 28.0188 6.83389L27.4516 6.76487C26.3497 6.63041 25.2102 6.49071 24.0827 6.4432C18.008 6.18682 11.8398 6.42752 5.87474 6.66044L4.80421 6.70214C4.64231 6.70858 4.48147 6.73165 4.3242 6.771C4.14429 6.80525 3.97991 6.89662 3.85495 7.03184C3.72998 7.16706 3.65093 7.33906 3.62938 7.52281C3.60166 7.70878 3.63567 7.8988 3.72603 8.0632C3.81639 8.22761 3.95808 8.35715 4.12895 8.43163Z" fill="#374151"/>
</svg>
