<svg width="80" height="84" viewBox="0 0 80 84" fill="none" xmlns="http://www.w3.org/2000/svg">
<path d="M59.7842 79.258C64.8099 73.1756 69.8901 67.1806 75.1039 61.2528C75.3404 61.7573 75.545 62.2761 75.7165 62.8062C75.837 63.1541 76.0878 63.4416 76.4162 63.6081C76.7445 63.7746 77.1247 63.8072 77.4765 63.6988C77.8284 63.5904 78.1244 63.3497 78.3022 63.0273C78.4799 62.7049 78.5255 62.3261 78.4294 61.9707C75.0522 51.1274 65.5272 53.0548 55.8509 55.9209C56.1164 54.3497 56.2654 52.761 56.2965 51.1677C56.3181 44.6929 54.389 38.1433 49.5685 33.6073C44.9663 29.2769 39.437 28.5825 33.3628 29.555C33.3222 29.5617 33.2829 29.5666 33.2425 29.573C33.3632 25.816 32.8701 22.0645 31.7825 18.4663C29.238 10.3407 23.301 4.11783 15.0528 1.87592C14.0118 1.59308 13.7029 3.11178 14.6647 3.46661C17.2931 4.43186 19.7175 5.88063 21.8126 7.73812C16.7738 13.9082 11.6413 20.0985 6.9762 26.5512C5.28647 25.5996 3.67853 24.5096 2.16895 23.2923C1.27455 22.5731 0.0940163 23.7811 0.93357 24.6038C5.80309 29.4602 12.1388 32.5745 18.9584 33.4637C22.5805 33.9287 26.4294 33.3527 30.231 32.8204C30.2001 33.1191 30.1826 33.4191 30.1446 33.717C29.1359 41.5928 25.0431 50.8681 30.7214 57.9878C35.7279 64.2651 43.9539 62.3462 52.082 59.8382C51.6466 62.3074 51.3475 64.7988 51.1862 67.3009C50.9035 73.0964 52.8057 79.0375 58.3993 81.5594C58.7026 81.7112 59.052 81.7431 59.3778 81.6486C59.7035 81.554 59.9816 81.3401 60.1565 81.0495C60.3314 80.7589 60.3902 80.4129 60.3212 80.0808C60.2522 79.7487 60.0604 79.4549 59.7842 79.258ZM52.5437 56.9195C49.8081 57.7505 47.117 58.5458 44.6044 59.0397C46.2828 57.0501 47.7551 54.7738 49.2695 52.7585C50.5609 51.04 51.8619 49.3246 53.141 47.5943C53.3017 50.7153 53.1013 53.8445 52.5437 56.9195ZM8.72147 27.4612C13.6117 21.3611 18.1428 14.8922 22.6775 8.51985C24.7292 10.5507 26.3983 12.9344 27.605 15.5569C26.7196 16.6618 25.9112 17.8264 25.1856 19.0423C23.5124 21.4173 21.8416 23.7784 19.9703 26.0044C18.856 27.33 17.5446 28.5644 16.5325 29.979C13.825 29.5048 11.1963 28.6574 8.72147 27.4612ZM18.9033 30.3126C21.3232 27.9941 23.3505 24.7063 25.0594 22.1422C26.1499 20.5058 27.1774 18.7931 28.2817 17.1508C29.8382 21.2419 30.5638 25.6023 30.4161 29.977C26.6042 30.5316 22.741 30.6443 18.9033 30.3126ZM33.0844 32.4464C35.6344 32.0723 38.2235 32.0478 40.7801 32.3737C37.3001 35.393 34.1108 38.7318 31.2541 42.3465C31.8718 39.0377 32.7758 35.7322 33.0844 32.4464ZM30.874 50.9396C30.6229 49.324 30.5747 47.6833 30.7306 46.0558L30.7329 46.0538C32.876 43.8195 34.709 41.2628 36.7639 38.9409C38.6257 36.8369 40.5705 34.8115 42.4725 32.7455C44.3602 33.2634 46.0985 34.2209 47.5451 35.5396C42.3687 41.6958 36.9563 47.6197 31.5056 53.5347C31.2273 52.6876 31.0161 51.8198 30.874 50.9396ZM32.2802 55.3398C32.2919 55.3287 32.3051 55.3262 32.3167 55.3141C38.0413 49.3475 43.3629 42.9815 48.5148 36.5134C48.9684 37.0086 49.3904 37.5319 49.7781 38.0802C51.3949 40.3665 52.4674 42.9922 52.9137 45.7566C51.0275 48.0119 49.2008 50.3249 47.3701 52.6205C45.4642 54.7776 43.6953 57.052 42.0739 59.4303C37.8037 59.8839 34.2743 59.0432 32.2802 55.3398ZM55.3577 58.8112C60.0508 57.3354 64.551 56.0227 68.213 56.3557C63.4945 61.5829 58.4616 67.7277 55.0846 73.996C53.311 69.6211 54.4064 64.0785 55.3577 58.8112ZM56.06 75.8095C58.097 73.1365 59.8074 70.1953 61.7344 67.4421C64.2835 63.8004 67.0408 60.323 69.6883 56.755C69.7154 56.7116 69.7378 56.6653 69.7552 56.6172C70.7309 56.8496 71.6501 57.275 72.4588 57.8682C73.2674 58.4614 73.9492 59.2106 74.4638 60.0714C68.6251 65.7012 63.216 71.7601 58.2818 78.1973C57.4213 77.522 56.6717 76.7164 56.06 75.8095Z" fill="#565656" style="mix-blend-mode:color-dodge"/>
</svg>
