<svg width="155" height="197" viewBox="0 0 155 197" fill="none" xmlns="http://www.w3.org/2000/svg">
<path d="M126.605 -11.8355C116.3 -13.9726 105.639 -13.6761 95.4687 -10.9696C94.8165 -15.2045 91.8555 -21.6784 86.4794 -19.2669C85.6785 -18.8619 84.9929 -18.2613 84.4861 -17.5207C83.9793 -16.7801 83.6678 -15.9235 83.5803 -15.0304C37.1649 -9.99002 16.3701 46.2392 32.5468 85.6176C48.5848 124.658 100.595 154.427 140.242 130.296C140.455 130.185 140.63 130.012 140.743 129.8C140.857 129.589 140.904 129.347 140.879 129.108C141.562 129.609 142.322 129.996 143.129 130.255C144.143 133.375 145.356 136.547 146.695 139.668C137.604 143.58 122.797 152.742 124.367 163.15C124.28 163.164 124.197 163.195 124.123 163.243C124.049 163.29 123.985 163.353 123.937 163.426C123.888 163.499 123.855 163.582 123.84 163.669C123.825 163.755 123.829 163.844 123.85 163.929C125.497 171.853 128.702 180.33 137.116 183.02C146.88 186.141 160.211 181.94 169.48 178.839C178.89 175.692 191.265 171.013 196.142 161.55C199.451 155.13 198.591 147.679 193.22 143.023C193.204 142.973 193.194 142.925 193.177 142.875C188.138 128.05 165.714 130.999 154.869 135.764C154.762 135.818 154.663 135.886 154.574 135.966C152.786 133.033 150.763 130.25 148.525 127.644C149.206 124.614 149.111 121.462 148.248 118.478C148.332 118.394 148.398 118.294 148.442 118.184C148.486 118.073 148.507 117.955 148.505 117.837C171.585 105.725 187.078 80.6936 185.066 54.2162C182.789 24.2694 155.836 -5.59054 126.605 -11.8355ZM134.801 -5.55226C142.184 -2.61693 149.045 1.49123 155.118 6.61362C147.929 3.05148 137.103 3.57346 134.801 -5.55226ZM86.5605 -13.0306C86.2553 -14.3654 86.5089 -16.3668 88.1443 -16.7036C91.5737 -17.4102 92.4426 -12.6379 92.9719 -10.243C91.6201 -9.83774 90.2821 -9.39286 88.958 -8.90832C87.8673 -10.0908 87.049 -11.4979 86.5605 -13.0306ZM111.571 -9.89124C114.377 -9.94652 117.184 -9.79439 119.968 -9.43611C119.765 -9.26741 119.563 -9.09868 119.361 -8.92993C119.201 -8.79556 119.086 -8.61451 119.034 -8.41199C117.928 -7.80912 115.929 -7.38943 114.961 -6.78954C114.215 -6.32664 114.12 -5.06268 113.446 -4.52981C110.12 -2.53536 106.608 -0.867185 102.96 0.451426C100.932 0.81396 99.1824 0.131555 97.0074 0.709899C92.9402 1.79174 78.0374 12.894 76.7323 2.11996C76.7174 1.92885 76.6427 1.74726 76.5189 1.60094C76.3951 1.45462 76.2284 1.351 76.0423 1.30472C86.5823 -5.72451 98.9056 -9.60785 111.571 -9.89124ZM138.514 127.885C99.0772 148.984 50.2148 122.631 35.0043 83.129C31.3022 73.5872 29.5965 63.3876 29.9924 53.1605C30.3884 42.9334 32.8776 32.8961 37.3063 23.6692C46.8212 4.45086 63.87 -6.65621 83.6409 -13.0577C84.0972 -11.1377 85.0786 -9.38247 86.4753 -7.98829C73.562 -2.82974 62.5338 6.15249 54.8687 17.7547C39.8868 40.9058 39.4204 72.2017 52.5746 96.263C69.5911 127.388 106.239 132.878 137.481 122.792C137.569 124.596 138.235 126.324 139.381 127.72C139.082 127.689 138.78 127.747 138.514 127.885ZM64.7743 36.0822C63.1524 44.2285 55.0785 45.505 50.3122 50.6982C48.4152 52.7786 47.0468 55.2851 46.3227 58.0058C46.4304 48.2802 48.4259 38.6681 52.1984 29.7032C54.1867 25.0768 56.7178 20.7032 59.7386 16.6743C62.444 22.6021 66.0546 29.6507 64.7743 36.0822ZM47.7567 74.0969C50.7821 81.6341 57.2254 92.3723 64.521 95.7375C69.9547 98.2439 75.1863 96.7511 80.0981 101.121C86.0392 106.407 87.0977 113.512 85.7005 120.939C77.3786 118.248 69.8987 113.442 63.9937 106.99C55.6351 97.7439 50.0132 86.3551 47.7567 74.0969ZM139.393 122.151C141.431 121.447 143.441 120.678 145.423 119.845C145.791 121.236 145.949 122.674 145.89 124.112C145.861 124.742 145.923 126.436 145.46 126.905C144.833 127.54 143.546 127.127 142.918 126.764C141.202 125.729 139.942 124.08 139.393 122.151ZM193.849 147.3C205.037 161.923 174.083 174.803 163.725 177.728C156.828 179.676 147.726 182.057 140.385 180.939C133.934 179.957 130.588 175.245 128.09 169.966C137.322 178.131 159.693 171.952 168.627 168.664C177.187 165.515 193.463 158.324 193.849 147.3ZM160.889 149.124C160.831 148.975 160.738 148.84 160.62 148.732C160.613 148.709 160.618 148.69 160.61 148.666C159.354 145.021 157.765 141.499 155.863 138.146C160.878 136.34 166.125 135.256 171.446 134.925C174.845 134.701 178.257 135.127 181.497 136.181C186.837 138.163 188.822 140.167 189.448 145.846C190.207 152.751 186.628 155.759 181.042 159.288C176.377 162.239 171.385 164.64 166.168 166.443C158.407 169.118 145.491 172.612 137.2 170.08C134.042 169.115 127.907 161.317 128.328 157.797C128.728 154.455 134.93 150.165 137.518 148.179C140.732 145.81 144.128 143.698 147.673 141.861C148.994 144.763 150.41 147.608 151.936 150.266C152.002 150.385 152.09 150.489 152.196 150.574C152.302 150.658 152.424 150.721 152.554 150.759C152.684 150.796 152.821 150.808 152.955 150.792C153.09 150.777 153.22 150.735 153.339 150.67C153.782 151.233 154.351 151.684 155.001 151.987C155.65 152.29 156.362 152.437 157.078 152.415C158.686 152.419 161.57 151.154 160.889 149.124ZM157.98 149.418C157.719 149.599 157.421 149.72 157.107 149.773C156.621 149.856 156.121 149.801 155.665 149.612C155.21 149.424 154.817 149.11 154.531 148.708C154.45 148.58 154.336 148.475 154.201 148.404C154.066 148.333 153.915 148.299 153.763 148.305C152.786 145.668 151.634 143.011 150.391 140.384C151.398 139.832 150.541 138.306 149.519 138.569C148.159 135.826 146.699 133.131 145.16 130.572C145.619 130.56 146.071 130.452 146.485 130.253C146.899 130.054 147.266 129.77 147.562 129.418C151.376 135.901 154.853 142.577 157.98 149.418ZM144.419 116.293C144.095 116.439 143.828 116.687 143.657 116.999C143.486 117.311 143.422 117.67 143.473 118.022C125.008 122.901 104.728 126.671 86.9325 121.328C90.2021 114.569 87.8172 106.373 82.8924 101.002C80.4446 98.2732 77.2567 96.3143 73.7165 95.3633C69.9763 94.3988 65.8976 94.581 62.5979 92.0647C59.3477 89.5862 56.2691 84.7937 53.9762 81.3947C47.78 72.2097 43.4444 59.3672 53.2786 50.6507C57.0296 47.3259 62.1289 45.7466 65.0635 41.4686C70.7676 33.1535 65.1012 22.3123 61.5173 14.4053C65.369 9.71194 69.8509 5.57346 74.8358 2.10732C74.8229 2.16447 74.8152 2.22267 74.8128 2.28119C75.6985 16.6693 93.5689 4.53219 99.5362 4.05714C104.951 3.62583 108.129 5.15238 112.664 1.43449C115.543 -0.925329 119.273 -4.05845 121.163 -7.24266C121.266 -7.41901 121.306 -7.62477 121.279 -7.82703C121.68 -8.10195 122.081 -8.37705 122.481 -8.6523C122.638 -8.75959 122.803 -8.86344 122.969 -8.96891C126.362 -8.34494 129.699 -7.44167 132.944 -6.26832C133.516 4.27208 147.498 7.43929 155.788 9.23214C155.938 9.24978 156.089 9.23567 156.233 9.19074C156.376 9.14581 156.509 9.07107 156.622 8.97141C156.734 8.87175 156.825 8.74942 156.887 8.61241C156.949 8.4754 156.982 8.32681 156.982 8.17636C159.333 10.2722 161.56 12.5028 163.652 14.857C160.001 16.1093 156.527 19.0106 155.828 23.1152C154.986 28.0615 158.242 29.1899 161.413 32.0117C166.988 36.9744 167.412 43.8143 171.7 49.4781C173.973 52.4807 175.739 56.2922 178.061 59.2179C179.517 61.0533 179.337 61.1757 181.512 62.1988C181.631 62.2498 181.757 62.2799 181.886 62.2879C180.43 85.0318 165.515 106.414 144.419 116.293ZM181.996 59.3512C179.562 56.9486 179.668 52.9743 177.391 50.4284C173.961 46.9316 171.308 42.7492 169.607 38.1554C168.864 35.7769 167.608 33.5904 165.928 31.75C165.284 31.1847 164.596 30.6701 163.873 30.2106C160.404 29.3372 159.262 27.2006 160.446 23.8005C159.332 20.1476 160.694 17.7474 164.531 16.6C164.673 16.5369 164.798 16.4428 164.899 16.3246C170.871 23.2852 175.555 31.2535 178.733 39.8566C180.986 46.1051 182.092 52.7095 181.996 59.3512Z" fill="#565656" style="mix-blend-mode:color-dodge"/>
<path d="M120.673 53.3204C111.913 49.0883 122.179 37.731 121.454 32.0461C121.179 30.3826 120.518 28.8066 119.525 27.4444C118.531 26.0822 117.232 24.9716 115.732 24.2016C108.586 20.1674 94.8163 21.5377 87.3344 23.5689C79.2262 25.77 75.7378 34.117 75.7182 41.9329C75.6902 42.0885 75.6909 42.2478 75.7201 42.4031C75.7312 43.1213 75.7607 43.8356 75.8298 44.537C75.8537 44.7366 75.9542 44.9191 76.1101 45.0461C76.2659 45.1731 76.465 45.2346 76.6653 45.2178C76.8656 45.201 77.0516 45.107 77.184 44.9558C77.3165 44.8046 77.3851 44.6079 77.3753 44.4071C77.3741 44.0225 77.3903 43.6481 77.4019 43.2707C79.0202 42.9763 79.8431 41.9912 81.3884 41.8556C88.4359 40.2953 93.0753 41.7011 95.3068 46.0732C95.574 47.14 96.1126 48.1196 96.8702 48.9168C103.236 53.5705 110.306 54.7814 113.205 63.265C116.654 73.3597 113.435 86.3819 122.489 94.1117C125.766 96.9095 132.685 99.8381 134.696 94.4843C135.409 92.5857 134.093 88.7632 134.025 86.7585C133.916 83.024 134.252 79.2897 135.026 75.6347C136.019 70.8538 139.869 64.576 138.243 59.4668C135.432 50.6295 126.601 56.1846 120.673 53.3204ZM134.023 69.4623C132.79 73.2785 131.982 77.2191 131.613 81.2125C131.442 83.6071 131.455 86.0113 131.652 88.4039C131.738 89.8433 131.914 91.2757 132.18 92.6928C129.425 92.589 126.669 92.4853 123.914 92.3817C118.258 89.7367 117.64 78.989 117.051 73.8856C116.262 67.055 115.503 59.5535 110.298 54.4768C106.032 50.3163 101.077 50.4343 97.2469 45.0445C95.4348 42.4937 95.298 40.1581 92.3134 38.4506C85.995 34.8368 83.0523 40.0156 77.5523 40.9365C78.4202 33.0507 82.5645 27.2304 91.6465 25.7611C96.7603 24.881 101.958 24.589 107.138 24.8905C110.305 24.6679 113.447 25.5905 115.991 27.4901C116.301 31.3752 116.611 35.2602 116.922 39.145C116.513 40.8916 114.997 42.5567 114.498 44.3545C113.73 47.1216 113.36 50.0354 114.999 52.5957C117.239 56.0957 121.402 56.0824 125.105 56.256C126.578 56.3249 130.002 55.6702 131.265 56.5188C135.605 59.434 135.193 65.5408 134.023 69.4623Z" fill="#565656" style="mix-blend-mode:color-dodge"/>
<path d="M111.42 119.161C105.998 119.55 100.549 119.023 95.3019 117.602C94.6188 117.41 94.4535 118.474 95.1105 118.676C100.396 120.376 105.999 120.856 111.497 120.079C111.615 120.064 111.724 120.005 111.799 119.912C111.874 119.82 111.911 119.702 111.901 119.583C111.891 119.464 111.835 119.353 111.746 119.275C111.656 119.196 111.539 119.155 111.42 119.161Z" fill="#565656" style="mix-blend-mode:color-dodge"/>
<path d="M121.222 114.097C115.288 114.708 109.311 114.784 103.363 114.326C102.648 114.267 102.442 115.364 103.166 115.434C109.204 116.057 115.294 115.985 121.316 115.219C121.461 115.201 121.593 115.128 121.685 115.015C121.777 114.902 121.821 114.758 121.809 114.613C121.797 114.467 121.729 114.333 121.619 114.237C121.51 114.14 121.367 114.091 121.222 114.097Z" fill="#565656" style="mix-blend-mode:color-dodge"/>
<path d="M115.69 18.1246C114.739 17.9397 114.524 19.3415 115.431 19.5843C117.578 20.1475 119.556 21.2249 121.194 22.7235C122.831 24.2222 124.08 26.0969 124.831 28.1859C124.912 28.3843 125.067 28.5434 125.263 28.6298C125.459 28.7162 125.681 28.7231 125.882 28.6491C126.083 28.575 126.248 28.4258 126.341 28.2328C126.434 28.0398 126.449 27.8182 126.382 27.6146C125.623 25.2149 124.228 23.0655 122.345 21.3947C120.463 19.7238 118.163 18.5938 115.69 18.1246Z" fill="#565656" style="mix-blend-mode:color-dodge"/>
<path d="M123.665 15.09C122.868 14.8413 122.431 16.2132 123.224 16.4931C125.422 17.2774 127.333 18.7036 128.71 20.5868C130.088 22.47 130.868 24.7235 130.95 27.0553C131.003 28.1028 132.531 27.9312 132.547 26.921C132.557 24.2506 131.696 21.6496 130.092 19.514C128.489 17.3783 126.232 15.8249 123.665 15.09Z" fill="#565656" style="mix-blend-mode:color-dodge"/>
</svg>
