<svg width="98" height="175" viewBox="0 0 98 175" fill="none" xmlns="http://www.w3.org/2000/svg">
<path d="M75.0535 64.7422C74.9717 64.5236 74.8347 64.33 74.6558 64.1801C76.1088 62.9261 77.291 61.3894 78.1305 59.6635C78.97 57.9376 79.4492 56.0589 79.5388 54.1418C79.6283 52.2246 79.3264 50.3093 78.6515 48.5127C77.9765 46.7161 76.9426 45.0758 75.6129 43.6919C76.442 42.5973 76.8598 41.2461 76.7932 39.8746C76.5326 38.3328 75.9043 36.8764 74.9613 35.629C79.3064 34.5563 83.431 32.734 87.1499 30.244C87.4486 30.0352 87.6555 29.7195 87.7278 29.3623C87.8 29.0051 87.7321 28.6338 87.538 28.3253C85.5728 24.7125 82.3923 17.6386 77.7317 16.8395C73.1215 16.049 68.5027 21.8303 65.7414 24.8678C64.1835 22.932 62.262 20.9137 60.0141 20.8121C57.1739 20.6838 54.216 23.707 52.1751 25.1393C47.0576 28.7303 41.9696 32.3639 36.911 36.0402C34.557 37.7603 29.7437 39.9275 28.1296 42.8179C27.0952 41.3143 26.0601 39.8113 25.0241 38.3088C24.9287 38.1716 24.7931 38.0672 24.636 38.0101C24.4789 37.953 24.308 37.9459 24.1466 37.9898C23.9853 38.0336 23.8416 38.1263 23.735 38.2552C23.6285 38.384 23.5644 38.5427 23.5517 38.7094C23.3157 38.6192 23.0586 38.5997 22.8118 38.6532C22.5649 38.7067 22.339 38.8309 22.1616 39.0107C17.7779 43.3198 13.942 48.1527 10.7407 53.4003C10.6237 53.6242 10.5698 53.8757 10.5846 54.1279C10.5994 54.3801 10.6824 54.6235 10.8248 54.8322C12.4974 57.1853 14.2216 59.4914 15.9975 61.7505C12.7148 64.6259 9.68535 67.8071 6.67923 70.9669C6.4755 71.206 6.3535 71.504 6.33113 71.8174C6.30877 72.1307 6.38721 72.443 6.55491 72.7087C8.72705 76.9695 11.4597 80.9205 14.6802 84.4562C14.9686 84.7035 15.3415 84.8295 15.7208 84.8079C16.1 84.7863 16.4563 84.6189 16.7148 84.3405C20.3664 81.32 23.7918 78.036 26.9635 74.5148C29.9531 77.6872 33.0592 80.7589 36.2821 83.7298C36.5172 83.9359 36.8133 84.0594 37.1252 84.0817C37.437 84.1039 37.7476 84.0236 38.0096 83.853C41.6049 81.1434 46.4385 78.3959 49.3445 74.9111C49.4959 74.7392 49.5995 74.5306 49.6449 74.3061C49.6903 74.0815 49.676 73.849 49.6033 73.6318C48.7513 71.5143 47.6281 69.5163 46.2617 67.6879C46.3322 67.6534 46.3996 67.6131 46.4634 67.5675C48.3831 65.8926 50.2625 64.1881 52.1495 62.4953C54.7348 67.5469 61.739 68.7638 67.6076 67.5233C70.707 84.6072 73.1025 103.179 63.5766 118.734C59.1651 125.936 52.5209 131.959 44.3008 134.361C35.6601 136.887 26.0767 135.616 17.0841 134.37C17.3128 133.314 17.5407 132.258 17.8176 131.213C18.1554 130.197 18.4264 129.16 18.6291 128.109C24.9171 128.995 31.17 129.617 37.2521 129.947C37.4242 129.961 37.5968 129.927 37.7509 129.849C37.905 129.771 38.0346 129.652 38.1256 129.505C38.1672 129.499 38.2084 129.49 38.2489 129.479C39.4702 128.983 40.5345 128.166 41.3284 127.114C42.1223 126.062 42.6163 124.815 42.7578 123.504C42.8992 122.194 42.6829 120.87 42.1318 119.672C41.5807 118.475 40.7154 117.45 39.628 116.705C35.9452 114.063 30.0357 113.911 25.7731 113.061C19.0866 111.729 12.3998 110.398 5.71254 109.069C-2.02997 107.527 -16.6821 101.805 -23.8473 107.677C-27.5164 110.685 -27.3494 116.289 -23.1126 117.648C-23.133 117.821 -23.0922 117.995 -22.9974 118.141C-22.9026 118.287 -22.7597 118.395 -22.5935 118.447C-15.6799 120.776 -8.65291 122.754 -1.53948 124.374C-2.07329 125.374 -2.37546 126.481 -2.42373 127.613C-2.58768 128.609 -2.7411 129.605 -2.89484 130.602C-12.2852 128.669 -22.1178 127.582 -29.2163 132.904C-35.7666 137.815 -36.4011 149.384 -27.6039 151.987C-23.3414 155.035 -18.1199 156.641 -13.0095 158.08C-3.0642 160.852 7.04614 162.994 17.2613 164.493C33.2452 166.878 45.9643 166.453 57.9709 154.521C80.9922 131.643 86.1244 94.379 75.0535 64.7422ZM78.8665 20.2611C81.2542 21.8568 83.1386 25.6592 84.5652 28.5306C81.2199 30.4328 77.6401 31.8888 73.9168 32.8616C73.6321 32.935 73.3807 33.1029 73.2039 33.3379C71.247 31.0109 68.9737 28.8393 67.6846 27.3239C67.3978 26.9867 67.0872 26.589 66.7577 26.164C69.5555 24.014 75.0222 17.692 78.8665 20.2611ZM15.7667 81.3189C13.3421 78.4855 11.2327 75.3969 9.47573 72.1076C12.0611 69.1442 14.6365 66.1457 16.9541 62.9699C19.5969 66.2913 22.3512 69.5136 25.2168 72.6369C21.9371 75.3636 18.9204 78.432 15.7667 81.3189ZM37.4294 79.9004C34.6038 79.7462 31.0013 74.6871 29.0925 72.6749C25.9623 69.375 22.9673 65.9527 20.1073 62.4082C17.9167 59.6928 13.9334 56.2121 14.6409 52.4943C15.365 48.6885 21.5437 43.5322 24.1218 40.7597C24.2229 40.6458 24.3039 40.5155 24.3612 40.3744C28.3918 47.1222 32.6885 53.7062 37.1725 60.1614C39.2446 63.1445 44.29 67.9732 45.2373 71.4169C46.2017 74.9232 40.8005 80.0841 37.4294 79.9004ZM44.7091 65.6065C42.5614 62.8492 40.2156 60.1868 38.4319 57.6645C35.4095 53.3904 32.4397 49.0803 29.4731 44.768C29.5403 44.6584 29.5718 44.5306 29.563 44.4023L29.7059 44.5492C30.8163 43.8009 31.9175 43.0398 33.0096 42.2658C34.475 41.2456 35.9352 40.2183 37.3902 39.1837C40.6698 36.8611 43.9355 34.5196 47.221 32.2052C49.8989 30.3188 55.0223 25.1583 58.1935 24.5201C62.8846 23.5759 67.0571 31.061 69.3666 33.9745C71.1881 36.2721 71.7504 36.9366 72.1485 40.0683C72.6428 43.9531 71.2975 44.5224 68.2716 46.6914C65.5706 48.6277 62.6703 50.2796 59.9653 52.2191C54.3616 56.0538 49.2393 60.5485 44.7091 65.6065ZM53.5655 61.227C56.1458 58.9396 58.7718 56.706 61.5866 54.6622C65.3953 51.8967 69.8956 49.6922 73.2786 46.3871C73.4355 46.2336 73.5975 46.0693 73.7592 45.9051C75.728 48.0929 76.7712 50.9592 76.6693 53.9006C76.5674 56.8421 75.3283 59.6293 73.2128 61.6755C68.8069 66.1179 57.3947 67.2367 53.5655 61.227ZM14.7961 134.055C14.0529 133.953 13.3148 133.855 12.5817 133.759C8.49341 133.232 3.76326 132.034 -1.14284 130.972C-0.895828 129.989 -0.648793 129.006 -0.411896 128.02C-0.025554 126.97 0.127709 125.849 0.0373025 124.734C5.33232 125.913 10.6973 126.906 16.0508 127.721C15.2626 129.742 14.8378 131.886 14.7961 134.055ZM-21.0599 117.297C-21.0661 117.217 -21.0928 117.14 -21.1373 117.073C-21.1818 117.006 -21.2426 116.951 -21.3141 116.914C-21.237 110.212 -18.9776 107.36 -14.5358 108.36C-12.8586 108.406 -11.1881 108.59 -9.54109 108.911C-7.7509 109.184 -5.97487 109.574 -4.19924 109.923C0.706553 110.889 5.60476 111.895 10.506 112.881C14.9625 113.777 19.4187 114.673 23.8746 115.57C26.1026 116.018 28.3318 116.461 30.5593 116.911C33.1172 117.429 47.2878 119.829 37.2349 127.419C37.2101 127.443 37.1867 127.469 37.1647 127.497C27.3105 125.707 17.3055 124.715 7.43572 122.945C-2.09389 121.235 -11.5242 118.948 -21.0599 117.297ZM58.6392 149.446C54.0548 154.756 48.4541 159.455 41.7524 161.796C33.3748 164.723 23.6854 162.624 15.1588 161.273C-0.273683 158.827 -15.5861 155.779 -29.2869 148.172C-33.0905 144.025 -30.9743 137.666 -26.0358 134.555C-21.8678 131.928 -16.617 132.086 -11.9189 132.748C-3.4713 133.938 4.82329 135.987 13.3086 137.06C26.1458 138.684 40.3977 141.18 52.1963 134.362C75.6204 120.824 76.0231 90.0859 69.3668 67.0612C70.4414 66.7296 71.4791 66.2888 72.4639 65.7458C82.6839 93.4195 78.186 126.804 58.6392 149.446Z" fill="#FFFFFF" style="mix-blend-mode:color-dodge"/>
<path d="M42.8543 36.7674C40.8283 37.0183 38.9358 37.9113 37.454 39.3155C35.9722 40.7197 34.9789 42.5614 34.6195 44.571C34.5931 44.7303 34.6296 44.8937 34.7212 45.0267C34.8129 45.1597 34.9526 45.2519 35.1109 45.2839C35.2692 45.3159 35.4338 45.2853 35.5699 45.1984C35.706 45.1115 35.8031 44.9751 35.8407 44.818C36.3183 43.1251 37.2439 41.5924 38.5199 40.3816C39.7959 39.1708 41.375 38.3268 43.0906 37.9387C43.752 37.7706 43.5297 36.6929 42.8543 36.7674Z" fill="#FFFFFF" style="mix-blend-mode:color-dodge"/>
<path d="M45.557 37.4506C44.0555 38.0521 42.7317 39.0259 41.7103 40.2803C40.689 41.5347 40.0037 43.0283 39.719 44.6206C39.6918 44.7835 39.729 44.9505 39.8226 45.0864C39.9162 45.2224 40.059 45.3167 40.2208 45.3494C40.3826 45.3821 40.5508 45.3508 40.6899 45.2619C40.829 45.173 40.9281 45.0336 40.9664 44.873C41.3156 43.5127 41.9564 42.2445 42.8443 41.1564C43.7322 40.0683 44.8461 39.1862 46.1088 38.5712C46.742 38.2364 46.2179 37.1959 45.557 37.4506Z" fill="#FFFFFF" style="mix-blend-mode:color-dodge"/>
</svg>
