<svg width="65" height="72" viewBox="0 0 65 72" fill="none" xmlns="http://www.w3.org/2000/svg">
<path d="M61.2367 19.4467C61.2881 19.3107 61.312 19.1659 61.3068 19.0206C61.3724 18.9254 61.4137 18.8156 61.4272 18.7008C61.4406 18.5859 61.4256 18.4695 61.3837 18.3617C61.3417 18.254 61.274 18.1581 61.1865 18.0826C61.099 18.007 60.9942 17.9541 60.8815 17.9284C54.1849 16.2065 48.0104 12.8746 42.8951 8.22239C42.7415 8.07322 42.5518 7.96643 42.3447 7.91252C42.1375 7.8586 41.9199 7.85937 41.7131 7.91478C41.5063 7.97019 41.3174 8.07833 41.165 8.22861C41.0125 8.37889 40.9017 8.5662 40.8433 8.77217C36.9411 20.8076 32.0682 32.5062 26.2726 43.753C25.0288 38.4532 20.2403 34.3724 14.1545 35.4885C5.82053 37.0169 2.15256 46.2802 6.26472 53.4281C10.2018 60.2716 21.5067 63.0173 27.9991 58.45C31.9835 55.6473 33.9475 50.7737 35.6867 46.4163C38.1998 40.1193 40.574 33.7667 43.0376 27.4499C45.4452 31.2233 50.1646 37.5459 53.6584 36.2821C54.6372 35.928 54.7167 35.4218 55.3743 34.5293C58.1791 30.7231 59.5571 23.8209 61.2367 19.4467ZM53.954 31.7871C53.5203 32.4678 53.0865 33.1484 52.6525 33.8287C51.0668 32.8763 49.5965 31.7438 48.2708 30.4539C46.5029 28.6771 44.9892 26.6644 43.7727 24.4728C43.6614 24.2908 43.4996 24.1451 43.307 24.0533C43.1144 23.9615 42.8994 23.9275 42.6879 23.9555C42.4764 23.9836 42.2776 24.0724 42.1156 24.2113C41.9536 24.3501 41.8354 24.533 41.7753 24.7378C39.5719 30.3719 37.3101 35.9836 35.0689 41.6029C33.175 46.3529 31.561 52.1963 27.5875 55.6909C21.4548 61.0846 9.23061 57.3331 7.25458 49.4101C3.77543 35.4613 26.9536 34.07 23.897 48.3344C23.8305 48.6266 23.8698 48.9328 24.0079 49.1987C24.146 49.4646 24.374 49.6729 24.6512 49.7866C24.9284 49.9002 25.2369 49.9118 25.5219 49.8194C25.8069 49.727 26.0499 49.5364 26.2076 49.2817C32.8219 37.0921 38.3167 24.3275 42.6244 11.145C47.3452 15.0484 52.9329 17.7633 58.9193 19.062C57.444 22.9064 56.4218 28.6027 53.954 31.7871Z" fill="#ffffff" style="mix-blend-mode:color-dodge"/>
<path d="M12.5767 52.0507C8.9557 50.5383 8.42292 46.6958 9.57877 43.3704C9.6075 43.2477 9.59594 43.1189 9.54585 43.0032C9.49575 42.8875 9.40975 42.791 9.30057 42.728C9.19139 42.665 9.06485 42.6388 8.93962 42.6532C8.81439 42.6677 8.69712 42.722 8.60518 42.8083C5.66142 46.1934 8.39805 51.6748 12.2271 52.904C12.7171 53.0612 13.0651 52.2548 12.5767 52.0507Z" fill="#ffffff" style="mix-blend-mode:color-dodge"/>
<path d="M13.7657 50.5289C12.1346 48.1408 12.4505 45.5281 13.8528 43.1372C13.9266 43.0003 13.9493 42.8416 13.917 42.6894C13.8847 42.5373 13.7994 42.4016 13.6764 42.3064C13.5533 42.2113 13.4005 42.163 13.2451 42.1701C13.0897 42.1771 12.9419 42.2391 12.828 42.345C10.5063 44.7608 10.8347 48.7464 12.8625 51.2127C13.2705 51.7092 14.1304 51.0627 13.7657 50.5289Z" fill="#ffffff" style="mix-blend-mode:color-dodge"/>
</svg>
