<svg width="69" height="113" viewBox="0 0 69 113" fill="none" xmlns="http://www.w3.org/2000/svg">
<path d="M68.1949 105.587C68.2037 105.24 68.1924 104.895 68.1916 104.549C68.2659 104.419 68.3047 104.272 68.3042 104.123C68.3038 103.973 68.264 103.826 68.189 103.697C68.1315 101.467 67.8913 99.2458 67.471 97.0552C67.4409 96.8824 67.367 96.7202 67.2562 96.5842C67.2498 96.1361 67.1195 95.6985 66.88 95.3197C66.6405 94.941 66.3009 94.6358 65.8989 94.4378C59.0112 81.8722 52.0975 69.3203 45.1579 56.7824C38.1647 44.1214 31.5675 31.0547 23.8158 18.8308C24.128 18.4597 24.3594 18.0276 24.4953 17.562C24.6312 17.0965 24.6687 16.6077 24.6052 16.1269C24.5417 15.6461 24.3788 15.1838 24.1267 14.7695C23.8747 14.3551 23.5391 13.9979 23.1413 13.7204C22.7824 13.4242 22.3778 13.1883 21.9433 13.0218C21.9964 12.8987 22.019 12.7647 22.0092 12.631C21.8307 10.3273 20.7077 9.35465 19.1694 9.15364C19.1705 9.06612 19.157 8.97903 19.1295 8.89593C18.4063 6.77871 16.799 2.12169 14.1667 1.6098C11.1895 1.03075 7.01484 4.37376 4.65553 5.74218C2.56549 6.95452 -0.0796159 8.1231 0.2887 10.9471C0.589551 13.2526 2.51152 15.5345 4.51902 16.8384C4.26013 17.2867 4.07291 17.7727 3.96414 18.2788C3.78284 18.9568 3.80645 19.6733 4.032 20.3379C4.25755 21.0025 4.67493 21.5855 5.23145 22.0131C4.83452 24.5311 6.74983 26.7443 8.80955 28.139C21.825 53.7889 37.6061 78.3122 52.8159 102.685C52.9413 102.883 53.1353 103.029 53.3609 103.093C53.5865 103.158 53.8279 103.137 54.0393 103.035C54.0944 103.139 54.1672 103.231 54.2542 103.309C56.5747 105.314 59.0657 107.112 61.6988 108.683C63.0152 109.496 64.9956 111.208 66.6658 110.497C68.4191 109.751 68.1556 107.14 68.1949 105.587ZM2.68768 11.791C1.94078 10.8043 2.16087 10.0064 3.34793 9.39734C3.86154 8.57595 4.61425 7.93142 5.50492 7.55041C6.38167 6.99308 7.28683 6.48176 8.21673 6.01852C10.2439 4.91329 12.9984 2.76094 14.9944 4.91799C16.0598 6.06889 16.6144 7.82021 17.5194 9.19178C14.2883 9.65505 10.2437 12.1108 8.67295 13.1088C7.40603 13.8397 6.25014 14.748 5.24041 15.8061C4.24957 14.5528 3.04539 13.2239 2.68768 11.791ZM56.3513 96.4687C49.0195 84.3207 41.4446 72.3193 34.1758 60.1343C26.9825 48.0763 18.4752 36.2755 13.9013 22.9028C13.8993 22.8971 13.8948 22.8944 13.8926 22.8887C14.7583 22.1655 15.6782 21.5097 16.6443 20.9274C16.8487 20.8066 17.0598 20.7102 17.2673 20.6005C30.0435 45.775 44.9648 70.0805 59.787 94.1072C59.3961 94.0015 58.9863 93.9862 58.5887 94.0624C58.0149 94.1877 57.4932 94.4853 57.0933 94.9153C56.6935 95.3454 56.4346 95.8874 56.3513 96.4687ZM43.5833 57.5221C50.3156 69.6542 57.0618 81.7789 63.8216 93.8963C63.1238 93.948 62.4735 94.2691 62.0082 94.7918C46.9764 70.1496 33.1617 44.8454 18.4889 20.0031C19.7596 19.4438 21.0647 18.9962 22.3673 18.5036C28.6711 31.8507 36.4244 44.6213 43.5833 57.5221ZM7.34688 16.1567C8.34049 15.3271 9.41373 14.5978 10.5509 13.9795C11.5044 13.4012 12.4764 12.8516 13.467 12.3386C15.0245 11.5318 19.6865 8.97478 20.3892 12.7218C18.2053 12.678 15.8608 13.9771 14.0397 14.9212C11.4429 16.267 7.41919 17.6307 5.84264 20.4077C5.74421 19.6309 5.82899 18.8419 6.0902 18.1037C6.3514 17.3655 6.78177 16.6987 7.34688 16.1567ZM8.18941 25.7846C7.68807 25.1052 7.36453 24.3113 7.24819 23.475C7.13186 22.6387 7.22643 21.7866 7.5233 20.9962C8.22489 19.5475 10.9228 18.5311 12.2549 17.818C13.5812 17.108 14.8971 16.3724 16.239 15.6919C16.9625 15.2709 17.7376 14.9457 18.5449 14.7244C19.8297 14.4509 22.5679 15.036 22.9281 16.5617C17.5435 16.9589 12.0855 21.1311 9.18135 25.4623C9.13042 25.538 9.09648 25.6237 9.08189 25.7137C8.94219 25.638 8.78354 25.6044 8.62515 25.617C8.46675 25.6296 8.3154 25.6878 8.18941 25.7846ZM9.73429 26.5741C9.82233 26.5822 9.91105 26.5692 9.99306 26.5362C10.0751 26.5032 10.148 26.4511 10.2058 26.3842C11.1566 25.3542 12.1583 24.3724 13.2072 23.4426C16.7241 36.4925 25.5168 48.1874 32.5662 59.5432C40.4071 72.1735 47.8946 85.0218 55.6611 97.6992C54.5551 97.9615 53.5961 98.6472 52.9902 99.6089C38.1205 75.5279 24.5979 50.639 9.73429 26.5741ZM55.2424 101.874C55.1144 101.781 54.9618 101.727 54.8037 101.72C54.6456 101.713 54.4889 101.752 54.353 101.833C54.2114 101.606 54.0745 101.376 53.9331 101.148C54.2099 100.489 54.7092 99.9478 55.3439 99.6188C55.9786 99.2899 56.7086 99.1939 57.4067 99.3477C57.5605 99.3602 57.7149 99.3323 57.8546 99.2666C57.9942 99.201 58.1143 99.0999 58.2028 98.9735C58.2913 98.8471 58.3451 98.6997 58.359 98.546C58.3729 98.3923 58.3464 98.2377 58.282 98.0974C57.186 96.1241 60.1127 94.7176 60.7725 97.2115C60.7958 97.3333 60.8561 97.4448 60.9453 97.5309C61.0345 97.6169 61.1482 97.6732 61.2707 97.692C61.3932 97.7108 61.5185 97.6911 61.6294 97.6358C61.7403 97.5805 61.8313 97.4921 61.8899 97.3829C61.9539 97.3593 62.0108 97.32 62.0557 97.2686C62.1005 97.2173 62.1317 97.1555 62.1465 97.089C62.1958 96.9416 62.2655 96.8019 62.3535 96.6739C62.4316 96.632 62.5005 96.5749 62.5562 96.5061C62.612 96.4372 62.6536 96.358 62.6785 96.273C62.865 96.0706 63.0908 95.9083 63.342 95.796C63.5933 95.6837 63.8648 95.6237 64.14 95.6197C64.4585 95.6285 64.7615 95.7593 64.9864 95.9852C65.1327 96.2467 65.2776 96.5086 65.424 96.7699C65.4314 96.7833 65.4429 96.7887 65.4507 96.8013C65.3548 96.9917 65.3224 97.2078 65.3582 97.418C65.6581 99.139 65.8548 100.876 65.9473 102.621C64.8769 102.509 63.8014 102.778 62.9088 103.379C62.0162 103.98 61.3634 104.876 61.0645 105.91C59.0705 104.611 57.15 103.083 55.2424 101.874ZM64.5347 107.795C63.7289 107.458 62.9484 107.064 62.1992 106.615C62.2312 106.579 62.2592 106.54 62.2827 106.498C62.6032 105.824 63.1403 105.277 63.8082 104.944C64.4762 104.611 65.2364 104.511 65.9676 104.661C65.9618 105.211 65.9682 105.76 65.9386 106.308C65.8647 107.671 66.2698 108.504 64.5347 107.795Z" fill="#565656" style="mix-blend-mode:color-dodge"/>
</svg>
