<svg width="92" height="102" viewBox="0 0 92 102" fill="none" xmlns="http://www.w3.org/2000/svg">
<path d="M90.1183 77.5979C73.8246 69.3016 58.3406 59.5031 43.8675 48.3298C37.5699 43.5317 31.317 38.6729 24.9647 33.9467C17.7786 28.6003 9.94426 21.3963 1.48982 18.315C1.43935 18.2971 1.38535 18.2914 1.33225 18.2984C1.27914 18.3054 1.22846 18.3248 1.18432 18.3552C1.14019 18.3856 1.10385 18.4259 1.07833 18.473C1.05281 18.5201 1.03885 18.5726 1.03753 18.6261C0.947237 18.6051 0.853029 18.6079 0.764181 18.6344C0.675334 18.6609 0.594893 18.7101 0.530821 18.7771C0.46675 18.8441 0.421242 18.9265 0.398774 19.0165C0.376305 19.1064 0.377643 19.2007 0.402679 19.29C3.3354 32.7634 7.86148 45.9797 11.7902 59.1901C13.762 65.8204 15.741 72.4487 17.7272 79.0749C19.4376 84.8011 20.5134 91.5478 23.0973 96.9272C24.2763 99.3817 25.1698 99.4108 27.7257 99.2953C34.2852 98.9989 41.7068 96.1671 48.0626 94.4979C51.9445 93.4784 55.8121 92.4022 59.6654 91.2694L59.6685 91.2953C59.6719 91.422 59.7245 91.5425 59.815 91.6313C59.9056 91.72 60.027 91.7702 60.1538 91.7711C60.2806 91.772 60.4028 91.7235 60.4946 91.6361C60.5864 91.5486 60.6407 91.4289 60.6459 91.3022C60.6519 91.1941 60.6546 91.0837 60.6587 90.9743C70.23 88.143 79.7038 84.9728 89.0259 81.4168C89.2034 81.3467 89.3646 81.2411 89.4998 81.1064C89.635 80.9717 89.7412 80.8107 89.8119 80.6335C89.8827 80.4563 89.9164 80.2665 89.9111 80.0757C89.9058 79.8849 89.8616 79.6973 89.7811 79.5243C89.9846 79.4777 90.1699 79.372 90.3136 79.2206C90.4574 79.0692 90.5533 78.8787 90.5893 78.6731C90.6253 78.4674 90.5997 78.2557 90.516 78.0644C90.4322 77.8732 90.2939 77.7109 90.1183 77.5979ZM80.4697 81.7094C80.4031 81.0937 80.1724 80.5072 79.8019 80.0109C79.7137 79.9253 79.6047 79.8641 79.4857 79.8332C79.3667 79.8023 79.2418 79.8027 79.123 79.8346C79.0043 79.8664 78.8959 79.9284 78.8083 80.0147C78.7207 80.101 78.657 80.2085 78.6233 80.3267C78.5508 80.9801 78.6573 81.6409 78.9314 82.2383C77.2709 82.8138 75.6108 83.3903 73.9462 83.9529L73.916 83.5238C73.9303 82.8633 73.8389 82.2046 73.6453 81.5729C73.4183 81.0253 72.5042 80.8404 72.3494 81.5695C72.2212 82.5275 72.2651 83.5008 72.4788 84.4434C70.7315 85.0276 68.9904 85.6319 67.2363 86.1953C66.9934 85.1569 66.5539 84.1746 65.9415 83.3016C65.8449 83.21 65.7239 83.1484 65.593 83.1241C65.4621 83.0998 65.3269 83.1139 65.2039 83.1647C65.0808 83.2155 64.9752 83.3009 64.8996 83.4105C64.824 83.5201 64.7817 83.6492 64.7779 83.7823C64.9316 84.793 65.2783 85.7647 65.7991 86.6445C64.0314 87.2058 62.2636 87.7662 60.4881 88.3044C60.3641 87.6497 60.1319 87.0204 59.8008 86.4421C59.7233 86.3188 59.6046 86.2269 59.4657 86.1829C59.3268 86.139 59.1769 86.1457 59.0425 86.2019C58.9081 86.2582 58.7981 86.3603 58.7319 86.4901C58.6658 86.6199 58.6478 86.7689 58.6813 86.9106C58.8347 87.5166 59.0138 88.1032 59.1805 88.691C57.3509 89.2384 55.5248 89.7963 53.6852 90.3155C53.5039 89.1813 53.1509 88.0813 52.6386 87.0533C52.5672 86.9389 52.461 86.8504 52.3356 86.8009C52.2101 86.7515 52.0721 86.7436 51.9419 86.7785C51.8117 86.8134 51.6961 86.8892 51.6122 86.9948C51.5283 87.1003 51.4805 87.2301 51.476 87.3648C51.5467 88.5152 51.7925 89.648 52.2047 90.7243C50.1749 91.2875 48.1429 91.8424 46.1041 92.3723C45.9018 91.2964 45.6064 90.2401 45.2211 89.2154C45.1812 89.0856 45.0925 88.9764 44.9737 88.9107C44.8549 88.845 44.7153 88.8279 44.5842 88.8631C44.453 88.8982 44.3406 88.9828 44.2706 89.0991C44.2006 89.2154 44.1784 89.3543 44.2087 89.4866C44.4401 90.5522 44.7639 91.5956 45.1765 92.6049C43.0841 93.1437 40.9894 93.6734 38.8893 94.1829C38.6195 93.1011 38.2239 92.0546 37.7106 91.0648C37.6412 90.9548 37.535 90.8729 37.4109 90.8337C37.2869 90.7946 37.1529 90.8006 37.0329 90.8508C36.9129 90.9011 36.8146 90.9922 36.7554 91.1081C36.6962 91.2239 36.6799 91.357 36.7096 91.4837C36.9328 92.5155 37.276 93.5177 37.7324 94.4697C37.3789 94.5543 37.0279 94.648 36.6741 94.7318C35.8039 94.9379 33.9986 95.5854 32.1564 96.1389C31.8669 94.9288 31.5069 93.7367 31.0783 92.5687C31.0367 92.4331 30.9441 92.319 30.82 92.2503C30.6958 92.1816 30.5499 92.1637 30.4129 92.2004C30.2758 92.2372 30.1584 92.3256 30.0852 92.4471C30.0121 92.5687 29.989 92.7138 30.0207 92.8521C30.2848 94.0745 30.6204 95.2805 31.0257 96.4636C29.3561 96.9148 27.809 97.1941 27.0796 96.8838C24.3736 95.7331 23.6374 90.2604 22.8903 87.7977C16.0179 65.1436 10.224 41.6887 1.70575 19.5881C7.82251 26.0062 16.7345 30.662 23.7917 35.9779C30.8887 41.3232 37.8423 46.8549 44.9281 52.2147C58.2701 62.3064 72.38 72.8022 88.0754 78.9853C85.5471 79.9171 83.0119 80.8251 80.4697 81.7094Z" fill="#ffffff" style="mix-blend-mode:color-dodge"/>
<path d="M68.0858 75.8394C52.6249 64.9951 37.4412 53.0534 21.1614 43.47C21.054 43.4117 20.9305 43.3898 20.8096 43.4075C20.6886 43.4253 20.5767 43.4818 20.4906 43.5685C20.4044 43.6552 20.3487 43.7675 20.3318 43.8886C20.3148 44.0097 20.3376 44.1329 20.3966 44.24C20.4983 44.4135 20.6001 44.5868 20.7019 44.7599C20.7623 44.856 20.8548 44.9275 20.9629 44.9618C21.0711 44.9961 21.1879 44.9908 21.2926 44.947C21.3973 44.9032 21.483 44.8237 21.5346 44.7226C21.5861 44.6216 21.6001 44.5055 21.5741 44.395C22.3422 47.3674 28.2059 50.3079 30.5101 51.9795C34.5289 54.8949 38.5631 57.789 42.6127 60.6619C49.9812 65.9092 57.3685 71.1302 64.7745 76.325C59.2626 77.6877 53.7505 79.0505 48.2382 80.4134C45.0767 81.1952 41.9153 81.9769 38.754 82.7584C37.23 83.1372 35.7052 83.5123 34.1795 83.8838C33.447 82.1642 32.7345 80.4363 32.042 78.7001C27.5064 67.3187 23.5701 55.7076 20.2493 43.9144C20.1726 43.6632 20.0013 43.4516 19.7716 43.3242C19.5418 43.1969 19.2717 43.1637 19.018 43.2316C18.7642 43.2996 18.5468 43.4635 18.4115 43.6886C18.2763 43.9138 18.2337 44.1827 18.2929 44.4386C20.2704 52.096 22.5303 59.6533 25.1467 67.1181C26.4537 70.8464 27.8374 74.5461 29.2977 78.2174C29.956 79.8698 31.0133 84.5102 32.5867 85.6878C35.0906 87.5624 40.2028 84.8323 42.9208 84.156C51.2162 82.0913 59.5113 80.0267 67.8063 77.9622C68.023 77.8973 68.2164 77.7712 68.3632 77.5989C68.5099 77.4267 68.6037 77.2156 68.6333 76.9913C68.6628 76.7669 68.6268 76.5389 68.5297 76.3345C68.4326 76.1301 68.2784 75.9582 68.0858 75.8394Z" fill="#ffffff" style="mix-blend-mode:color-dodge"/>
<path d="M15.097 52.9627C13.5272 49.7088 12.3968 46.2606 11.7354 42.7088C11.6072 42.0821 10.5251 42.2032 10.601 42.854C11.0824 46.6 12.3329 50.206 14.2741 53.4458C14.3404 53.5502 14.4447 53.6247 14.5649 53.6537C14.6851 53.6827 14.8119 53.6639 14.9186 53.6013C15.0253 53.5387 15.1035 53.4372 15.1368 53.3181C15.1701 53.1989 15.1558 53.0715 15.097 52.9627Z" fill="#ffffff" style="mix-blend-mode:color-dodge"/>
<path d="M11.2788 34.8712C11.1986 34.7449 11.0725 34.6546 10.927 34.6195C10.7815 34.5843 10.6281 34.607 10.499 34.6827C10.37 34.7585 10.2753 34.8813 10.2351 35.0255C10.1948 35.1696 10.2121 35.3237 10.2832 35.4554C12.3446 39.062 13.4679 43.1281 13.5504 47.2814C13.5546 47.4295 13.6161 47.5701 13.7219 47.6737C13.8277 47.7774 13.9697 47.8359 14.1178 47.8369C14.2659 47.838 14.4086 47.7815 14.5159 47.6794C14.6232 47.5773 14.6867 47.4374 14.6929 47.2895C14.8818 42.8948 13.6877 38.5516 11.2788 34.8712Z" fill="#ffffff" style="mix-blend-mode:color-dodge"/>
</svg>
